<mxfile host="app.diagrams.net" modified="2022-07-28T14:21:03.355Z" agent="5.0 (Windows)" etag="H4xaFgMEcG_tHowHGQAI" version="20.2.2" type="github">
  <diagram id="UubX5dcgKOnRHBO35QM9" name="Page-1">
    <mxGraphModel dx="782" dy="420" grid="1" gridSize="10" guides="1" tooltips="1" connect="1" arrows="1" fold="1" page="1" pageScale="1" pageWidth="850" pageHeight="1100" math="0" shadow="0">
      <root>
        <mxCell id="0" />
        <mxCell id="1" parent="0" />
        <mxCell id="sQjCd_Z69TwKa3vilqSy-1" value="" style="html=1;" parent="1" vertex="1">
          <mxGeometry x="180" y="90" width="410" height="250" as="geometry" />
        </mxCell>
        <mxCell id="sQjCd_Z69TwKa3vilqSy-2" value="" style="curved=1;endArrow=classic;html=1;rounded=0;entryX=1;entryY=0.108;entryDx=0;entryDy=0;entryPerimeter=0;" parent="1" target="sQjCd_Z69TwKa3vilqSy-1" edge="1">
          <mxGeometry width="50" height="50" relative="1" as="geometry">
            <mxPoint x="580" y="40" as="sourcePoint" />
            <mxPoint x="590" y="70" as="targetPoint" />
            <Array as="points">
              <mxPoint x="640" y="30" />
              <mxPoint x="680" y="80" />
              <mxPoint x="660" y="80" />
            </Array>
          </mxGeometry>
        </mxCell>
        <mxCell id="sQjCd_Z69TwKa3vilqSy-4" value="System Boundary" style="text;html=1;strokeColor=none;fillColor=none;align=center;verticalAlign=middle;whiteSpace=wrap;rounded=0;" parent="1" vertex="1">
          <mxGeometry x="520" y="30" width="60" height="30" as="geometry" />
        </mxCell>
        <mxCell id="sQjCd_Z69TwKa3vilqSy-6" value="&lt;div&gt;Checkout&lt;/div&gt;&lt;div&gt;Shopping cart&lt;br&gt;&lt;/div&gt;" style="shape=ellipse;html=1;dashed=0;whitespace=wrap;perimeter=ellipsePerimeter;" parent="1" vertex="1">
          <mxGeometry x="210" y="120" width="100" height="50" as="geometry" />
        </mxCell>
        <mxCell id="sQjCd_Z69TwKa3vilqSy-8" value="Make Payment" style="ellipse;whiteSpace=wrap;html=1;dashed=0;" parent="1" vertex="1">
          <mxGeometry x="430" y="115" width="120" height="60" as="geometry" />
        </mxCell>
        <mxCell id="sQjCd_Z69TwKa3vilqSy-10" value="&amp;lt;&amp;lt;include&amp;gt;&amp;gt;" style="html=1;verticalAlign=bottom;labelBackgroundColor=none;endArrow=open;endFill=0;rounded=0;entryX=0;entryY=0.5;entryDx=0;entryDy=0;exitX=1;exitY=0.5;exitDx=0;exitDy=0;dashed=1;" parent="1" source="sQjCd_Z69TwKa3vilqSy-6" target="sQjCd_Z69TwKa3vilqSy-8" edge="1">
          <mxGeometry width="160" relative="1" as="geometry">
            <mxPoint x="310" y="140" as="sourcePoint" />
            <mxPoint x="470" y="140" as="targetPoint" />
          </mxGeometry>
        </mxCell>
        <mxCell id="sQjCd_Z69TwKa3vilqSy-11" value="&lt;div&gt;Search Product&lt;/div&gt;" style="ellipse;whiteSpace=wrap;html=1;" parent="1" vertex="1">
          <mxGeometry x="200" y="195" width="110" height="40" as="geometry" />
        </mxCell>
        <mxCell id="sQjCd_Z69TwKa3vilqSy-12" value="&lt;div&gt;Search By Category&lt;br&gt;&lt;/div&gt;" style="ellipse;whiteSpace=wrap;html=1;" parent="1" vertex="1">
          <mxGeometry x="450" y="195" width="120" height="35" as="geometry" />
        </mxCell>
        <mxCell id="sQjCd_Z69TwKa3vilqSy-14" value="&amp;lt;&amp;lt;extend&amp;gt;&amp;gt;" style="edgeStyle=none;html=1;startArrow=open;endArrow=none;startSize=12;verticalAlign=bottom;dashed=1;labelBackgroundColor=none;rounded=0;" parent="1" edge="1">
          <mxGeometry width="160" relative="1" as="geometry">
            <mxPoint x="310" y="214.5" as="sourcePoint" />
            <mxPoint x="450" y="214.5" as="targetPoint" />
          </mxGeometry>
        </mxCell>
        <mxCell id="sQjCd_Z69TwKa3vilqSy-15" value="&lt;div&gt;Search By Name&lt;/div&gt;&lt;div&gt;&lt;br&gt;&lt;/div&gt;" style="ellipse;whiteSpace=wrap;html=1;" parent="1" vertex="1">
          <mxGeometry x="450" y="280" width="120" height="35" as="geometry" />
        </mxCell>
        <mxCell id="sQjCd_Z69TwKa3vilqSy-19" value="&amp;lt;&amp;lt;extend&amp;gt;&amp;gt;" style="edgeStyle=none;html=1;startArrow=open;endArrow=none;startSize=12;verticalAlign=bottom;dashed=1;labelBackgroundColor=none;rounded=0;entryX=0;entryY=0.5;entryDx=0;entryDy=0;" parent="1" target="sQjCd_Z69TwKa3vilqSy-15" edge="1">
          <mxGeometry x="0.53" y="13" width="160" relative="1" as="geometry">
            <mxPoint x="290" y="230" as="sourcePoint" />
            <mxPoint x="450" y="270" as="targetPoint" />
            <mxPoint as="offset" />
          </mxGeometry>
        </mxCell>
        <mxCell id="sQjCd_Z69TwKa3vilqSy-20" value="" style="endArrow=classic;html=1;rounded=0;" parent="1" edge="1">
          <mxGeometry width="50" height="50" relative="1" as="geometry">
            <mxPoint x="370" y="50" as="sourcePoint" />
            <mxPoint x="380" y="130" as="targetPoint" />
          </mxGeometry>
        </mxCell>
        <mxCell id="sQjCd_Z69TwKa3vilqSy-21" value="&lt;div&gt;Include Relationship&lt;/div&gt;&lt;div&gt;&lt;br&gt;&lt;/div&gt;" style="text;html=1;strokeColor=none;fillColor=none;align=center;verticalAlign=middle;whiteSpace=wrap;rounded=0;" parent="1" vertex="1">
          <mxGeometry x="320" y="20" width="60" height="30" as="geometry" />
        </mxCell>
        <mxCell id="sQjCd_Z69TwKa3vilqSy-22" value="" style="endArrow=classic;html=1;rounded=0;" parent="1" edge="1">
          <mxGeometry width="50" height="50" relative="1" as="geometry">
            <mxPoint x="390" y="280" as="sourcePoint" />
            <mxPoint x="400" y="360" as="targetPoint" />
          </mxGeometry>
        </mxCell>
        <mxCell id="sQjCd_Z69TwKa3vilqSy-23" value="&lt;div&gt;Extend Rlationship&lt;/div&gt;&lt;div&gt;&lt;br&gt;&lt;/div&gt;" style="text;html=1;strokeColor=none;fillColor=none;align=center;verticalAlign=middle;whiteSpace=wrap;rounded=0;" parent="1" vertex="1">
          <mxGeometry x="370" y="370" width="60" height="30" as="geometry" />
        </mxCell>
        <mxCell id="sQjCd_Z69TwKa3vilqSy-25" value="" style="endArrow=classic;html=1;rounded=0;entryX=0.27;entryY=-0.04;entryDx=0;entryDy=0;entryPerimeter=0;" parent="1" target="sQjCd_Z69TwKa3vilqSy-6" edge="1">
          <mxGeometry width="50" height="50" relative="1" as="geometry">
            <mxPoint x="210" y="70" as="sourcePoint" />
            <mxPoint x="260" y="20" as="targetPoint" />
          </mxGeometry>
        </mxCell>
        <mxCell id="sQjCd_Z69TwKa3vilqSy-26" value="&lt;div&gt;Use Case&lt;/div&gt;" style="text;html=1;strokeColor=none;fillColor=none;align=center;verticalAlign=middle;whiteSpace=wrap;rounded=0;" parent="1" vertex="1">
          <mxGeometry x="170" y="30" width="60" height="30" as="geometry" />
        </mxCell>
        <mxCell id="sQjCd_Z69TwKa3vilqSy-27" value="&lt;div&gt;Customer&lt;/div&gt;&lt;div&gt;&lt;br&gt;&lt;/div&gt;" style="shape=umlActor;verticalLabelPosition=bottom;verticalAlign=top;html=1;outlineConnect=0;" parent="1" vertex="1">
          <mxGeometry x="40" y="120" width="30" height="60" as="geometry" />
        </mxCell>
        <mxCell id="sQjCd_Z69TwKa3vilqSy-28" value="Guest" style="shape=umlActor;verticalLabelPosition=bottom;verticalAlign=top;html=1;outlineConnect=0;" parent="1" vertex="1">
          <mxGeometry x="90" y="300" width="30" height="60" as="geometry" />
        </mxCell>
        <mxCell id="sQjCd_Z69TwKa3vilqSy-31" value="" style="endArrow=none;html=1;rounded=0;" parent="1" target="sQjCd_Z69TwKa3vilqSy-6" edge="1">
          <mxGeometry width="50" height="50" relative="1" as="geometry">
            <mxPoint x="80" y="145" as="sourcePoint" />
            <mxPoint x="150" y="150" as="targetPoint" />
          </mxGeometry>
        </mxCell>
        <mxCell id="sQjCd_Z69TwKa3vilqSy-32" value="" style="endArrow=none;html=1;rounded=0;entryX=0.364;entryY=1.075;entryDx=0;entryDy=0;entryPerimeter=0;" parent="1" target="sQjCd_Z69TwKa3vilqSy-11" edge="1">
          <mxGeometry width="50" height="50" relative="1" as="geometry">
            <mxPoint x="120" y="310" as="sourcePoint" />
            <mxPoint x="170" y="260" as="targetPoint" />
          </mxGeometry>
        </mxCell>
        <mxCell id="sQjCd_Z69TwKa3vilqSy-36" value="" style="edgeStyle=none;html=1;endSize=12;endArrow=block;endFill=0;rounded=0;" parent="1" target="sQjCd_Z69TwKa3vilqSy-28" edge="1">
          <mxGeometry width="160" relative="1" as="geometry">
            <mxPoint x="70" y="210" as="sourcePoint" />
            <mxPoint x="100" y="280" as="targetPoint" />
          </mxGeometry>
        </mxCell>
        <mxCell id="sQjCd_Z69TwKa3vilqSy-37" value="&lt;div&gt;Generalization&lt;/div&gt;&lt;div&gt;&lt;br&gt;&lt;/div&gt;" style="text;html=1;strokeColor=none;fillColor=none;align=center;verticalAlign=middle;whiteSpace=wrap;rounded=0;" parent="1" vertex="1">
          <mxGeometry x="10" y="260" width="60" height="30" as="geometry" />
        </mxCell>
        <mxCell id="sQjCd_Z69TwKa3vilqSy-40" value="" style="endArrow=classic;html=1;rounded=0;" parent="1" edge="1">
          <mxGeometry width="50" height="50" relative="1" as="geometry">
            <mxPoint x="180" y="410" as="sourcePoint" />
            <mxPoint x="130" y="370" as="targetPoint" />
          </mxGeometry>
        </mxCell>
        <mxCell id="sQjCd_Z69TwKa3vilqSy-41" value="Actor" style="text;html=1;strokeColor=none;fillColor=none;align=center;verticalAlign=middle;whiteSpace=wrap;rounded=0;" parent="1" vertex="1">
          <mxGeometry x="170" y="410" width="60" height="30" as="geometry" />
        </mxCell>
        <mxCell id="sQjCd_Z69TwKa3vilqSy-42" value="" style="endArrow=classic;html=1;rounded=0;" parent="1" edge="1">
          <mxGeometry width="50" height="50" relative="1" as="geometry">
            <mxPoint x="100" y="70" as="sourcePoint" />
            <mxPoint x="130" y="140" as="targetPoint" />
          </mxGeometry>
        </mxCell>
        <mxCell id="sQjCd_Z69TwKa3vilqSy-43" value="&lt;div&gt;Association&lt;/div&gt;" style="text;html=1;strokeColor=none;fillColor=none;align=center;verticalAlign=middle;whiteSpace=wrap;rounded=0;" parent="1" vertex="1">
          <mxGeometry x="50" y="40" width="60" height="30" as="geometry" />
        </mxCell>
        <mxCell id="sQjCd_Z69TwKa3vilqSy-44" value="&lt;div style=&quot;font-size: 19px;&quot;&gt;Sample use-case diagram for online shopping system&lt;/div&gt;&lt;div style=&quot;font-size: 19px;&quot;&gt;&lt;br style=&quot;font-size: 19px;&quot;&gt;&lt;/div&gt;" style="text;html=1;strokeColor=none;fillColor=none;align=center;verticalAlign=middle;whiteSpace=wrap;rounded=0;fontStyle=1;fontSize=19;" parent="1" vertex="1">
          <mxGeometry x="120" y="460" width="540" height="30" as="geometry" />
        </mxCell>
      </root>
    </mxGraphModel>
  </diagram>
</mxfile>
